%TF.GenerationSoftware,KiCad,Pcbnew,(5.1.6-0-10_14)*%
%TF.CreationDate,2020-10-21T16:06:14-07:00*%
%TF.ProjectId,photodiode_pcb,70686f74-6f64-4696-9f64-655f7063622e,rev?*%
%TF.SameCoordinates,Original*%
%TF.FileFunction,Copper,L1,Top*%
%TF.FilePolarity,Positive*%
%FSLAX46Y46*%
G04 Gerber Fmt 4.6, Leading zero omitted, Abs format (unit mm)*
G04 Created by KiCad (PCBNEW (5.1.6-0-10_14)) date 2020-10-21 16:06:14*
%MOMM*%
%LPD*%
G01*
G04 APERTURE LIST*
%TA.AperFunction,SMDPad,CuDef*%
%ADD10R,5.080000X1.600000*%
%TD*%
%TA.AperFunction,ComponentPad*%
%ADD11C,4.000000*%
%TD*%
%TA.AperFunction,ComponentPad*%
%ADD12O,1.200000X1.200000*%
%TD*%
%TA.AperFunction,ComponentPad*%
%ADD13O,1.200000X1.600000*%
%TD*%
%TA.AperFunction,SMDPad,CuDef*%
%ADD14R,0.900000X1.200000*%
%TD*%
%TA.AperFunction,ViaPad*%
%ADD15C,0.800000*%
%TD*%
%TA.AperFunction,Conductor*%
%ADD16C,0.250000*%
%TD*%
G04 APERTURE END LIST*
D10*
%TO.P,J1,2*%
%TO.N,GND*%
X138811000Y-97385000D03*
X138811000Y-91845000D03*
%TO.P,J1,1*%
%TO.N,Net-(J1-Pad1)*%
X138811000Y-94615000D03*
%TD*%
D11*
%TO.P,H4,1*%
%TO.N,GND*%
X151384000Y-88265000D03*
%TD*%
%TO.P,H3,1*%
%TO.N,GND*%
X151257000Y-100584000D03*
%TD*%
%TO.P,H2,1*%
%TO.N,GND*%
X138938000Y-88265000D03*
%TD*%
%TO.P,H1,1*%
%TO.N,GND*%
X138684000Y-100838000D03*
%TD*%
%TO.P,R1,2*%
%TO.N,Net-(D1-Pad1)*%
%TA.AperFunction,SMDPad,CuDef*%
G36*
G01*
X146128000Y-95065001D02*
X146128000Y-94164999D01*
G75*
G02*
X146377999Y-93915000I249999J0D01*
G01*
X147028001Y-93915000D01*
G75*
G02*
X147278000Y-94164999I0J-249999D01*
G01*
X147278000Y-95065001D01*
G75*
G02*
X147028001Y-95315000I-249999J0D01*
G01*
X146377999Y-95315000D01*
G75*
G02*
X146128000Y-95065001I0J249999D01*
G01*
G37*
%TD.AperFunction*%
%TO.P,R1,1*%
%TO.N,Net-(J1-Pad1)*%
%TA.AperFunction,SMDPad,CuDef*%
G36*
G01*
X144078000Y-95065001D02*
X144078000Y-94164999D01*
G75*
G02*
X144327999Y-93915000I249999J0D01*
G01*
X144978001Y-93915000D01*
G75*
G02*
X145228000Y-94164999I0J-249999D01*
G01*
X145228000Y-95065001D01*
G75*
G02*
X144978001Y-95315000I-249999J0D01*
G01*
X144327999Y-95315000D01*
G75*
G02*
X144078000Y-95065001I0J249999D01*
G01*
G37*
%TD.AperFunction*%
%TD*%
D12*
%TO.P,D3,3*%
%TO.N,GND*%
X151257000Y-96012000D03*
%TO.P,D3,2*%
%TO.N,Net-(D1-Pad1)*%
X149987000Y-94742000D03*
D13*
%TO.P,D3,1*%
%TO.N,GND*%
X151257000Y-93472000D03*
%TD*%
D14*
%TO.P,D2,2*%
%TO.N,Net-(D1-Pad1)*%
X147318000Y-96901000D03*
%TO.P,D2,1*%
%TO.N,GND*%
X144018000Y-96901000D03*
%TD*%
%TO.P,D1,2*%
%TO.N,GND*%
X144018000Y-92329000D03*
%TO.P,D1,1*%
%TO.N,Net-(D1-Pad1)*%
X147318000Y-92329000D03*
%TD*%
D15*
%TO.N,GND*%
X142240000Y-91694000D03*
X142240000Y-97536000D03*
%TD*%
D16*
%TO.N,GND*%
X144018000Y-92329000D02*
X144417000Y-92329000D01*
X139295000Y-92329000D02*
X138811000Y-91845000D01*
X143448000Y-97471000D02*
X144018000Y-96901000D01*
X141801000Y-97471000D02*
X143448000Y-97471000D01*
X141715000Y-97385000D02*
X141801000Y-97471000D01*
X138811000Y-97385000D02*
X141715000Y-97385000D01*
X141605000Y-92329000D02*
X139295000Y-92329000D01*
X144018000Y-92329000D02*
X141605000Y-92329000D01*
X138897000Y-91759000D02*
X138811000Y-91845000D01*
X141801000Y-91759000D02*
X138897000Y-91759000D01*
X142089000Y-91845000D02*
X142240000Y-91694000D01*
X138811000Y-91845000D02*
X142089000Y-91845000D01*
X142089000Y-97385000D02*
X142240000Y-97536000D01*
X138811000Y-97385000D02*
X142089000Y-97385000D01*
%TO.N,Net-(D1-Pad1)*%
X147318000Y-94000000D02*
X146703000Y-94615000D01*
X147318000Y-92329000D02*
X147318000Y-94000000D01*
X146703000Y-94615000D02*
X146703000Y-94633000D01*
X147318000Y-95230000D02*
X146703000Y-94615000D01*
X147318000Y-96901000D02*
X147318000Y-95230000D01*
X146830000Y-94742000D02*
X146703000Y-94615000D01*
X149987000Y-94742000D02*
X146830000Y-94742000D01*
%TO.N,Net-(J1-Pad1)*%
X138811000Y-94615000D02*
X144653000Y-94615000D01*
%TD*%
M02*
