%TF.GenerationSoftware,KiCad,Pcbnew,(5.1.6-0-10_14)*%
%TF.CreationDate,2020-10-21T16:06:14-07:00*%
%TF.ProjectId,photodiode_pcb,70686f74-6f64-4696-9f64-655f7063622e,rev?*%
%TF.SameCoordinates,Original*%
%TF.FileFunction,Copper,L2,Bot*%
%TF.FilePolarity,Positive*%
%FSLAX46Y46*%
G04 Gerber Fmt 4.6, Leading zero omitted, Abs format (unit mm)*
G04 Created by KiCad (PCBNEW (5.1.6-0-10_14)) date 2020-10-21 16:06:14*
%MOMM*%
%LPD*%
G01*
G04 APERTURE LIST*
%TA.AperFunction,SMDPad,CuDef*%
%ADD10R,5.080000X1.600000*%
%TD*%
%TA.AperFunction,ComponentPad*%
%ADD11C,4.000000*%
%TD*%
%TA.AperFunction,ComponentPad*%
%ADD12O,1.200000X1.200000*%
%TD*%
%TA.AperFunction,ComponentPad*%
%ADD13O,1.200000X1.600000*%
%TD*%
%TA.AperFunction,ViaPad*%
%ADD14C,0.800000*%
%TD*%
%TA.AperFunction,Conductor*%
%ADD15C,0.250000*%
%TD*%
%TA.AperFunction,Conductor*%
%ADD16C,0.254000*%
%TD*%
G04 APERTURE END LIST*
D10*
%TO.P,J1,2*%
%TO.N,GND*%
X138811000Y-97385000D03*
X138811000Y-91845000D03*
%TD*%
D11*
%TO.P,H4,1*%
%TO.N,GND*%
X151384000Y-88265000D03*
%TD*%
%TO.P,H3,1*%
%TO.N,GND*%
X151257000Y-100584000D03*
%TD*%
%TO.P,H2,1*%
%TO.N,GND*%
X138938000Y-88265000D03*
%TD*%
%TO.P,H1,1*%
%TO.N,GND*%
X138684000Y-100838000D03*
%TD*%
D12*
%TO.P,D3,3*%
%TO.N,GND*%
X151257000Y-96012000D03*
%TO.P,D3,2*%
%TO.N,Net-(D1-Pad1)*%
X149987000Y-94742000D03*
D13*
%TO.P,D3,1*%
%TO.N,GND*%
X151257000Y-93472000D03*
%TD*%
D14*
%TO.N,GND*%
X142240000Y-91694000D03*
X142240000Y-97536000D03*
%TD*%
D15*
%TO.N,GND*%
X138897000Y-91759000D02*
X138811000Y-91845000D01*
X141801000Y-91759000D02*
X138897000Y-91759000D01*
%TD*%
D16*
%TO.N,GND*%
G36*
X137270106Y-86417501D02*
G01*
X138938000Y-88085395D01*
X140605894Y-86417501D01*
X140511904Y-86258000D01*
X149810096Y-86258000D01*
X149716106Y-86417501D01*
X151384000Y-88085395D01*
X153051894Y-86417501D01*
X152957904Y-86258000D01*
X154280000Y-86258000D01*
X154280001Y-102718000D01*
X152756066Y-102718000D01*
X152924894Y-102431499D01*
X151257000Y-100763605D01*
X149589106Y-102431499D01*
X149757934Y-102718000D01*
X140332742Y-102718000D01*
X140351894Y-102685499D01*
X138684000Y-101017605D01*
X137016106Y-102685499D01*
X137035258Y-102718000D01*
X136550000Y-102718000D01*
X136550000Y-102337066D01*
X136836501Y-102505894D01*
X138504395Y-100838000D01*
X138863605Y-100838000D01*
X140531499Y-102505894D01*
X140898258Y-102289772D01*
X141138938Y-101829895D01*
X141285275Y-101331902D01*
X141331648Y-100814929D01*
X141309346Y-100607071D01*
X148609352Y-100607071D01*
X148664727Y-101123159D01*
X148819721Y-101618526D01*
X149042742Y-102035772D01*
X149409501Y-102251894D01*
X151077395Y-100584000D01*
X151436605Y-100584000D01*
X153104499Y-102251894D01*
X153471258Y-102035772D01*
X153711938Y-101575895D01*
X153858275Y-101077902D01*
X153904648Y-100560929D01*
X153849273Y-100044841D01*
X153694279Y-99549474D01*
X153471258Y-99132228D01*
X153104499Y-98916106D01*
X151436605Y-100584000D01*
X151077395Y-100584000D01*
X149409501Y-98916106D01*
X149042742Y-99132228D01*
X148802062Y-99592105D01*
X148655725Y-100090098D01*
X148609352Y-100607071D01*
X141309346Y-100607071D01*
X141276273Y-100298841D01*
X141121279Y-99803474D01*
X140898258Y-99386228D01*
X140531499Y-99170106D01*
X138863605Y-100838000D01*
X138504395Y-100838000D01*
X136836501Y-99170106D01*
X136550000Y-99338934D01*
X136550000Y-98822692D01*
X137115446Y-98821921D01*
X137016106Y-98990501D01*
X138684000Y-100658395D01*
X140351894Y-98990501D01*
X140252350Y-98821575D01*
X141351000Y-98823072D01*
X141475482Y-98810812D01*
X141595180Y-98774502D01*
X141666273Y-98736501D01*
X149589106Y-98736501D01*
X151257000Y-100404395D01*
X152924894Y-98736501D01*
X152708772Y-98369742D01*
X152248895Y-98129062D01*
X151750902Y-97982725D01*
X151233929Y-97936352D01*
X150717841Y-97991727D01*
X150222474Y-98146721D01*
X149805228Y-98369742D01*
X149589106Y-98736501D01*
X141666273Y-98736501D01*
X141705494Y-98715537D01*
X141802185Y-98636185D01*
X141881537Y-98539494D01*
X141940502Y-98429180D01*
X141976812Y-98309482D01*
X141989072Y-98185000D01*
X141986000Y-97670750D01*
X141827250Y-97512000D01*
X138938000Y-97512000D01*
X138938000Y-97532000D01*
X138684000Y-97532000D01*
X138684000Y-97512000D01*
X138664000Y-97512000D01*
X138664000Y-97258000D01*
X138684000Y-97258000D01*
X138684000Y-96108750D01*
X138938000Y-96108750D01*
X138938000Y-97258000D01*
X141827250Y-97258000D01*
X141986000Y-97099250D01*
X141989072Y-96585000D01*
X141976812Y-96460518D01*
X141940502Y-96340820D01*
X141934511Y-96329610D01*
X150063533Y-96329610D01*
X150148428Y-96556341D01*
X150275925Y-96762153D01*
X150441124Y-96939137D01*
X150637676Y-97080492D01*
X150858029Y-97180785D01*
X150939391Y-97205462D01*
X151130000Y-97080731D01*
X151130000Y-96139000D01*
X151384000Y-96139000D01*
X151384000Y-97080731D01*
X151574609Y-97205462D01*
X151655971Y-97180785D01*
X151876324Y-97080492D01*
X152072876Y-96939137D01*
X152238075Y-96762153D01*
X152365572Y-96556341D01*
X152450467Y-96329610D01*
X152326709Y-96139000D01*
X151384000Y-96139000D01*
X151130000Y-96139000D01*
X150187291Y-96139000D01*
X150063533Y-96329610D01*
X141934511Y-96329610D01*
X141881537Y-96230506D01*
X141802185Y-96133815D01*
X141705494Y-96054463D01*
X141595180Y-95995498D01*
X141475482Y-95959188D01*
X141351000Y-95946928D01*
X139096750Y-95950000D01*
X138938000Y-96108750D01*
X138684000Y-96108750D01*
X138525250Y-95950000D01*
X136550000Y-95947308D01*
X136550000Y-94620363D01*
X148752000Y-94620363D01*
X148752000Y-94863637D01*
X148799460Y-95102236D01*
X148892557Y-95326992D01*
X149027713Y-95529267D01*
X149199733Y-95701287D01*
X149402008Y-95836443D01*
X149626764Y-95929540D01*
X149865363Y-95977000D01*
X150108637Y-95977000D01*
X150347236Y-95929540D01*
X150454765Y-95885000D01*
X151130000Y-95885000D01*
X151130000Y-95209765D01*
X151174540Y-95102236D01*
X151222000Y-94863637D01*
X151222000Y-94620363D01*
X151174540Y-94381764D01*
X151130000Y-94274235D01*
X151130000Y-93599000D01*
X151384000Y-93599000D01*
X151384000Y-94740731D01*
X151538755Y-94842000D01*
X151384000Y-94943269D01*
X151384000Y-95885000D01*
X152326709Y-95885000D01*
X152450467Y-95694390D01*
X152365572Y-95467659D01*
X152238075Y-95261847D01*
X152072876Y-95084863D01*
X151876324Y-94943508D01*
X151656188Y-94843314D01*
X151841907Y-94766396D01*
X152044174Y-94631258D01*
X152216191Y-94459256D01*
X152351346Y-94257000D01*
X152444446Y-94032263D01*
X152491913Y-93793681D01*
X152336994Y-93599000D01*
X151384000Y-93599000D01*
X151130000Y-93599000D01*
X150454765Y-93599000D01*
X150347236Y-93554460D01*
X150108637Y-93507000D01*
X149865363Y-93507000D01*
X149626764Y-93554460D01*
X149402008Y-93647557D01*
X149199733Y-93782713D01*
X149027713Y-93954733D01*
X148892557Y-94157008D01*
X148799460Y-94381764D01*
X148752000Y-94620363D01*
X136550000Y-94620363D01*
X136550000Y-93282692D01*
X138525250Y-93280000D01*
X138684000Y-93121250D01*
X138684000Y-91972000D01*
X138938000Y-91972000D01*
X138938000Y-93121250D01*
X139096750Y-93280000D01*
X141351000Y-93283072D01*
X141475482Y-93270812D01*
X141595180Y-93234502D01*
X141705494Y-93175537D01*
X141736222Y-93150319D01*
X150022087Y-93150319D01*
X150177006Y-93345000D01*
X151130000Y-93345000D01*
X151130000Y-92203269D01*
X151384000Y-92203269D01*
X151384000Y-93345000D01*
X152336994Y-93345000D01*
X152491913Y-93150319D01*
X152444446Y-92911737D01*
X152351346Y-92687000D01*
X152216191Y-92484744D01*
X152044174Y-92312742D01*
X151841907Y-92177604D01*
X151617162Y-92084523D01*
X151574609Y-92078538D01*
X151384000Y-92203269D01*
X151130000Y-92203269D01*
X150939391Y-92078538D01*
X150896838Y-92084523D01*
X150672093Y-92177604D01*
X150469826Y-92312742D01*
X150297809Y-92484744D01*
X150162654Y-92687000D01*
X150069554Y-92911737D01*
X150022087Y-93150319D01*
X141736222Y-93150319D01*
X141802185Y-93096185D01*
X141881537Y-92999494D01*
X141940502Y-92889180D01*
X141976812Y-92769482D01*
X141989072Y-92645000D01*
X141986000Y-92130750D01*
X141827250Y-91972000D01*
X138938000Y-91972000D01*
X138684000Y-91972000D01*
X138664000Y-91972000D01*
X138664000Y-91718000D01*
X138684000Y-91718000D01*
X138684000Y-91698000D01*
X138938000Y-91698000D01*
X138938000Y-91718000D01*
X141827250Y-91718000D01*
X141986000Y-91559250D01*
X141989072Y-91045000D01*
X141976812Y-90920518D01*
X141940502Y-90800820D01*
X141881537Y-90690506D01*
X141802185Y-90593815D01*
X141705494Y-90514463D01*
X141595180Y-90455498D01*
X141475482Y-90419188D01*
X141351000Y-90406928D01*
X140431656Y-90408181D01*
X140605894Y-90112499D01*
X149716106Y-90112499D01*
X149932228Y-90479258D01*
X150392105Y-90719938D01*
X150890098Y-90866275D01*
X151407071Y-90912648D01*
X151923159Y-90857273D01*
X152418526Y-90702279D01*
X152835772Y-90479258D01*
X153051894Y-90112499D01*
X151384000Y-88444605D01*
X149716106Y-90112499D01*
X140605894Y-90112499D01*
X138938000Y-88444605D01*
X137270106Y-90112499D01*
X137444548Y-90408527D01*
X136550000Y-90407308D01*
X136550000Y-89391721D01*
X136723742Y-89716772D01*
X137090501Y-89932894D01*
X138758395Y-88265000D01*
X139117605Y-88265000D01*
X140785499Y-89932894D01*
X141152258Y-89716772D01*
X141392938Y-89256895D01*
X141539275Y-88758902D01*
X141581509Y-88288071D01*
X148736352Y-88288071D01*
X148791727Y-88804159D01*
X148946721Y-89299526D01*
X149169742Y-89716772D01*
X149536501Y-89932894D01*
X151204395Y-88265000D01*
X151563605Y-88265000D01*
X153231499Y-89932894D01*
X153598258Y-89716772D01*
X153838938Y-89256895D01*
X153985275Y-88758902D01*
X154031648Y-88241929D01*
X153976273Y-87725841D01*
X153821279Y-87230474D01*
X153598258Y-86813228D01*
X153231499Y-86597106D01*
X151563605Y-88265000D01*
X151204395Y-88265000D01*
X149536501Y-86597106D01*
X149169742Y-86813228D01*
X148929062Y-87273105D01*
X148782725Y-87771098D01*
X148736352Y-88288071D01*
X141581509Y-88288071D01*
X141585648Y-88241929D01*
X141530273Y-87725841D01*
X141375279Y-87230474D01*
X141152258Y-86813228D01*
X140785499Y-86597106D01*
X139117605Y-88265000D01*
X138758395Y-88265000D01*
X137090501Y-86597106D01*
X136723742Y-86813228D01*
X136550000Y-87145204D01*
X136550000Y-86258000D01*
X137364096Y-86258000D01*
X137270106Y-86417501D01*
G37*
X137270106Y-86417501D02*
X138938000Y-88085395D01*
X140605894Y-86417501D01*
X140511904Y-86258000D01*
X149810096Y-86258000D01*
X149716106Y-86417501D01*
X151384000Y-88085395D01*
X153051894Y-86417501D01*
X152957904Y-86258000D01*
X154280000Y-86258000D01*
X154280001Y-102718000D01*
X152756066Y-102718000D01*
X152924894Y-102431499D01*
X151257000Y-100763605D01*
X149589106Y-102431499D01*
X149757934Y-102718000D01*
X140332742Y-102718000D01*
X140351894Y-102685499D01*
X138684000Y-101017605D01*
X137016106Y-102685499D01*
X137035258Y-102718000D01*
X136550000Y-102718000D01*
X136550000Y-102337066D01*
X136836501Y-102505894D01*
X138504395Y-100838000D01*
X138863605Y-100838000D01*
X140531499Y-102505894D01*
X140898258Y-102289772D01*
X141138938Y-101829895D01*
X141285275Y-101331902D01*
X141331648Y-100814929D01*
X141309346Y-100607071D01*
X148609352Y-100607071D01*
X148664727Y-101123159D01*
X148819721Y-101618526D01*
X149042742Y-102035772D01*
X149409501Y-102251894D01*
X151077395Y-100584000D01*
X151436605Y-100584000D01*
X153104499Y-102251894D01*
X153471258Y-102035772D01*
X153711938Y-101575895D01*
X153858275Y-101077902D01*
X153904648Y-100560929D01*
X153849273Y-100044841D01*
X153694279Y-99549474D01*
X153471258Y-99132228D01*
X153104499Y-98916106D01*
X151436605Y-100584000D01*
X151077395Y-100584000D01*
X149409501Y-98916106D01*
X149042742Y-99132228D01*
X148802062Y-99592105D01*
X148655725Y-100090098D01*
X148609352Y-100607071D01*
X141309346Y-100607071D01*
X141276273Y-100298841D01*
X141121279Y-99803474D01*
X140898258Y-99386228D01*
X140531499Y-99170106D01*
X138863605Y-100838000D01*
X138504395Y-100838000D01*
X136836501Y-99170106D01*
X136550000Y-99338934D01*
X136550000Y-98822692D01*
X137115446Y-98821921D01*
X137016106Y-98990501D01*
X138684000Y-100658395D01*
X140351894Y-98990501D01*
X140252350Y-98821575D01*
X141351000Y-98823072D01*
X141475482Y-98810812D01*
X141595180Y-98774502D01*
X141666273Y-98736501D01*
X149589106Y-98736501D01*
X151257000Y-100404395D01*
X152924894Y-98736501D01*
X152708772Y-98369742D01*
X152248895Y-98129062D01*
X151750902Y-97982725D01*
X151233929Y-97936352D01*
X150717841Y-97991727D01*
X150222474Y-98146721D01*
X149805228Y-98369742D01*
X149589106Y-98736501D01*
X141666273Y-98736501D01*
X141705494Y-98715537D01*
X141802185Y-98636185D01*
X141881537Y-98539494D01*
X141940502Y-98429180D01*
X141976812Y-98309482D01*
X141989072Y-98185000D01*
X141986000Y-97670750D01*
X141827250Y-97512000D01*
X138938000Y-97512000D01*
X138938000Y-97532000D01*
X138684000Y-97532000D01*
X138684000Y-97512000D01*
X138664000Y-97512000D01*
X138664000Y-97258000D01*
X138684000Y-97258000D01*
X138684000Y-96108750D01*
X138938000Y-96108750D01*
X138938000Y-97258000D01*
X141827250Y-97258000D01*
X141986000Y-97099250D01*
X141989072Y-96585000D01*
X141976812Y-96460518D01*
X141940502Y-96340820D01*
X141934511Y-96329610D01*
X150063533Y-96329610D01*
X150148428Y-96556341D01*
X150275925Y-96762153D01*
X150441124Y-96939137D01*
X150637676Y-97080492D01*
X150858029Y-97180785D01*
X150939391Y-97205462D01*
X151130000Y-97080731D01*
X151130000Y-96139000D01*
X151384000Y-96139000D01*
X151384000Y-97080731D01*
X151574609Y-97205462D01*
X151655971Y-97180785D01*
X151876324Y-97080492D01*
X152072876Y-96939137D01*
X152238075Y-96762153D01*
X152365572Y-96556341D01*
X152450467Y-96329610D01*
X152326709Y-96139000D01*
X151384000Y-96139000D01*
X151130000Y-96139000D01*
X150187291Y-96139000D01*
X150063533Y-96329610D01*
X141934511Y-96329610D01*
X141881537Y-96230506D01*
X141802185Y-96133815D01*
X141705494Y-96054463D01*
X141595180Y-95995498D01*
X141475482Y-95959188D01*
X141351000Y-95946928D01*
X139096750Y-95950000D01*
X138938000Y-96108750D01*
X138684000Y-96108750D01*
X138525250Y-95950000D01*
X136550000Y-95947308D01*
X136550000Y-94620363D01*
X148752000Y-94620363D01*
X148752000Y-94863637D01*
X148799460Y-95102236D01*
X148892557Y-95326992D01*
X149027713Y-95529267D01*
X149199733Y-95701287D01*
X149402008Y-95836443D01*
X149626764Y-95929540D01*
X149865363Y-95977000D01*
X150108637Y-95977000D01*
X150347236Y-95929540D01*
X150454765Y-95885000D01*
X151130000Y-95885000D01*
X151130000Y-95209765D01*
X151174540Y-95102236D01*
X151222000Y-94863637D01*
X151222000Y-94620363D01*
X151174540Y-94381764D01*
X151130000Y-94274235D01*
X151130000Y-93599000D01*
X151384000Y-93599000D01*
X151384000Y-94740731D01*
X151538755Y-94842000D01*
X151384000Y-94943269D01*
X151384000Y-95885000D01*
X152326709Y-95885000D01*
X152450467Y-95694390D01*
X152365572Y-95467659D01*
X152238075Y-95261847D01*
X152072876Y-95084863D01*
X151876324Y-94943508D01*
X151656188Y-94843314D01*
X151841907Y-94766396D01*
X152044174Y-94631258D01*
X152216191Y-94459256D01*
X152351346Y-94257000D01*
X152444446Y-94032263D01*
X152491913Y-93793681D01*
X152336994Y-93599000D01*
X151384000Y-93599000D01*
X151130000Y-93599000D01*
X150454765Y-93599000D01*
X150347236Y-93554460D01*
X150108637Y-93507000D01*
X149865363Y-93507000D01*
X149626764Y-93554460D01*
X149402008Y-93647557D01*
X149199733Y-93782713D01*
X149027713Y-93954733D01*
X148892557Y-94157008D01*
X148799460Y-94381764D01*
X148752000Y-94620363D01*
X136550000Y-94620363D01*
X136550000Y-93282692D01*
X138525250Y-93280000D01*
X138684000Y-93121250D01*
X138684000Y-91972000D01*
X138938000Y-91972000D01*
X138938000Y-93121250D01*
X139096750Y-93280000D01*
X141351000Y-93283072D01*
X141475482Y-93270812D01*
X141595180Y-93234502D01*
X141705494Y-93175537D01*
X141736222Y-93150319D01*
X150022087Y-93150319D01*
X150177006Y-93345000D01*
X151130000Y-93345000D01*
X151130000Y-92203269D01*
X151384000Y-92203269D01*
X151384000Y-93345000D01*
X152336994Y-93345000D01*
X152491913Y-93150319D01*
X152444446Y-92911737D01*
X152351346Y-92687000D01*
X152216191Y-92484744D01*
X152044174Y-92312742D01*
X151841907Y-92177604D01*
X151617162Y-92084523D01*
X151574609Y-92078538D01*
X151384000Y-92203269D01*
X151130000Y-92203269D01*
X150939391Y-92078538D01*
X150896838Y-92084523D01*
X150672093Y-92177604D01*
X150469826Y-92312742D01*
X150297809Y-92484744D01*
X150162654Y-92687000D01*
X150069554Y-92911737D01*
X150022087Y-93150319D01*
X141736222Y-93150319D01*
X141802185Y-93096185D01*
X141881537Y-92999494D01*
X141940502Y-92889180D01*
X141976812Y-92769482D01*
X141989072Y-92645000D01*
X141986000Y-92130750D01*
X141827250Y-91972000D01*
X138938000Y-91972000D01*
X138684000Y-91972000D01*
X138664000Y-91972000D01*
X138664000Y-91718000D01*
X138684000Y-91718000D01*
X138684000Y-91698000D01*
X138938000Y-91698000D01*
X138938000Y-91718000D01*
X141827250Y-91718000D01*
X141986000Y-91559250D01*
X141989072Y-91045000D01*
X141976812Y-90920518D01*
X141940502Y-90800820D01*
X141881537Y-90690506D01*
X141802185Y-90593815D01*
X141705494Y-90514463D01*
X141595180Y-90455498D01*
X141475482Y-90419188D01*
X141351000Y-90406928D01*
X140431656Y-90408181D01*
X140605894Y-90112499D01*
X149716106Y-90112499D01*
X149932228Y-90479258D01*
X150392105Y-90719938D01*
X150890098Y-90866275D01*
X151407071Y-90912648D01*
X151923159Y-90857273D01*
X152418526Y-90702279D01*
X152835772Y-90479258D01*
X153051894Y-90112499D01*
X151384000Y-88444605D01*
X149716106Y-90112499D01*
X140605894Y-90112499D01*
X138938000Y-88444605D01*
X137270106Y-90112499D01*
X137444548Y-90408527D01*
X136550000Y-90407308D01*
X136550000Y-89391721D01*
X136723742Y-89716772D01*
X137090501Y-89932894D01*
X138758395Y-88265000D01*
X139117605Y-88265000D01*
X140785499Y-89932894D01*
X141152258Y-89716772D01*
X141392938Y-89256895D01*
X141539275Y-88758902D01*
X141581509Y-88288071D01*
X148736352Y-88288071D01*
X148791727Y-88804159D01*
X148946721Y-89299526D01*
X149169742Y-89716772D01*
X149536501Y-89932894D01*
X151204395Y-88265000D01*
X151563605Y-88265000D01*
X153231499Y-89932894D01*
X153598258Y-89716772D01*
X153838938Y-89256895D01*
X153985275Y-88758902D01*
X154031648Y-88241929D01*
X153976273Y-87725841D01*
X153821279Y-87230474D01*
X153598258Y-86813228D01*
X153231499Y-86597106D01*
X151563605Y-88265000D01*
X151204395Y-88265000D01*
X149536501Y-86597106D01*
X149169742Y-86813228D01*
X148929062Y-87273105D01*
X148782725Y-87771098D01*
X148736352Y-88288071D01*
X141581509Y-88288071D01*
X141585648Y-88241929D01*
X141530273Y-87725841D01*
X141375279Y-87230474D01*
X141152258Y-86813228D01*
X140785499Y-86597106D01*
X139117605Y-88265000D01*
X138758395Y-88265000D01*
X137090501Y-86597106D01*
X136723742Y-86813228D01*
X136550000Y-87145204D01*
X136550000Y-86258000D01*
X137364096Y-86258000D01*
X137270106Y-86417501D01*
%TD*%
M02*
